<mxfile host="app.diagrams.net" modified="2024-02-25T10:29:38.505Z" agent="Mozilla/5.0 (Windows NT 10.0; Win64; x64) AppleWebKit/537.36 (KHTML, like Gecko) Chrome/121.0.0.0 Safari/537.36" version="23.1.6" etag="57qgVCdTb1OPMTqzd_d8" type="github">
  <diagram name="第 1 页" id="0vpH04qofWTmKhj7mlBc">
    <mxGraphModel>
      <root>
        <mxCell id="0" />
        <mxCell id="1" parent="0" />
      </root>
    </mxGraphModel>
  </diagram>
</mxfile>
